<?xml version="1.0" standalone="no"?>
<!DOCTYPE svg PUBLIC "-//W3C//DTD SVG 20010904//EN"
 "http://www.w3.org/TR/2001/REC-SVG-20010904/DTD/svg10.dtd">
<svg version="1.0" xmlns="http://www.w3.org/2000/svg"
 width="1153.000000pt" height="1153.000000pt" viewBox="0 0 1153.000000 1153.000000"
 preserveAspectRatio="xMidYMid meet">
<metadata>
Created by potrace 1.11, written by Peter Selinger 2001-2013
</metadata>
<g transform="translate(0.000000,1153.000000) scale(0.100000,-0.100000)"
fill="#000000" stroke="none">
<path d="M6238 11515 c-2 -2 -91 -6 -198 -10 -107 -4 -220 -8 -250 -10 -30 -2
-109 -6 -175 -10 -66 -3 -142 -8 -170 -10 -27 -3 -79 -7 -115 -10 -93 -7 -187
-15 -245 -21 -27 -3 -70 -7 -95 -9 -121 -11 -249 -24 -280 -30 -14 -2 -50 -7
-80 -10 -30 -3 -66 -8 -80 -10 -14 -3 -43 -7 -65 -10 -40 -5 -67 -9 -148 -20
-23 -3 -49 -8 -57 -10 -8 -2 -35 -6 -60 -9 -25 -3 -56 -9 -70 -12 -14 -3 -38
-7 -55 -9 -42 -6 -401 -79 -515 -105 -352 -82 -773 -217 -1075 -345 -22 -10
-41 -17 -42 -17 -8 2 -317 -156 -398 -203 -191 -110 -522 -344 -610 -430 -11
-11 -42 -38 -70 -60 -59 -47 -53 -42 -191 -176 -133 -128 -228 -230 -314 -335
-35 -43 -67 -81 -70 -84 -3 -3 -30 -39 -60 -80 -30 -41 -57 -77 -60 -80 -3 -3
-9 -12 -15 -21 -5 -10 -45 -72 -88 -138 -133 -208 -263 -472 -352 -717 -39
-107 -112 -357 -121 -414 -3 -19 -7 -37 -9 -40 -5 -8 -53 -282 -60 -340 -3
-25 -7 -63 -10 -85 -15 -126 -20 -237 -20 -470 1 -269 6 -379 30 -545 2 -19 7
-55 10 -80 29 -222 113 -567 210 -857 36 -108 70 -202 75 -208 6 -7 6 -16 2
-21 -10 -12 93 85 193 181 75 72 288 277 463 444 37 35 150 144 252 242 102
97 231 222 288 276 l102 98 -59 120 c-152 307 -273 705 -306 1000 -4 33 -9 71
-11 85 -29 169 -22 621 11 818 3 17 8 47 10 66 14 111 92 363 151 491 15 33
28 62 28 65 1 3 8 16 16 30 7 14 26 48 40 76 37 69 118 189 181 266 49 59 220
233 266 270 258 204 474 325 788 443 152 57 410 132 545 159 14 3 43 10 65 15
22 5 56 12 75 15 19 3 71 12 115 20 44 9 100 18 125 21 25 3 59 7 75 10 70 11
112 17 150 21 92 9 144 14 210 19 39 3 90 8 115 10 317 29 1154 24 1680 -9
209 -14 302 -21 400 -31 19 -2 67 -6 105 -10 39 -3 86 -8 105 -10 19 -2 62 -7
95 -10 33 -3 73 -8 88 -11 15 -2 51 -6 80 -9 29 -2 63 -7 77 -9 14 -3 47 -8
73 -11 41 -4 123 -16 287 -40 25 -3 244 -40 334 -56 27 -4 50 -10 52 -12 2 -2
-53 -34 -123 -72 -71 -37 -135 -74 -144 -81 -8 -8 -18 -14 -22 -14 -3 0 -41
-22 -84 -48 -43 -27 -89 -55 -103 -63 -14 -8 -27 -16 -30 -19 -3 -3 -36 -25
-75 -50 -38 -24 -75 -48 -80 -54 -17 -18 -74 -56 -84 -56 -5 0 -11 -4 -13 -8
-1 -4 -39 -34 -83 -67 -233 -173 -522 -437 -710 -650 -43 -49 -81 -92 -84 -95
-37 -32 -251 -321 -345 -464 -255 -388 -449 -755 -766 -1451 -10 -22 -21 -51
-25 -65 -4 -14 -11 -27 -14 -30 -3 -3 -17 -32 -30 -65 -37 -94 -120 -288 -131
-307 -6 -10 -10 -22 -10 -28 0 -6 -9 -29 -19 -53 -11 -23 -41 -96 -66 -162
-26 -66 -52 -131 -57 -145 -6 -14 -19 -45 -28 -70 -107 -289 -163 -438 -170
-455 -5 -11 -61 -164 -124 -340 -149 -416 -225 -623 -241 -660 -7 -16 -34 -88
-60 -160 -26 -71 -52 -141 -58 -155 -6 -14 -11 -27 -12 -30 -1 -3 -5 -14 -9
-25 -4 -11 -35 -92 -68 -180 -33 -88 -66 -173 -73 -190 -7 -16 -18 -46 -25
-65 -7 -19 -19 -48 -25 -65 -7 -16 -48 -120 -90 -230 -87 -224 -268 -661 -295
-715 -10 -19 -18 -37 -18 -40 -3 -39 -269 -602 -374 -792 -187 -335 -437 -657
-683 -878 -38 -35 -103 -90 -144 -122 l-73 -59 -97 6 c-148 8 -269 15 -341 20
-36 2 -108 7 -160 10 -52 3 -125 7 -161 10 l-66 4 -129 -116 c-71 -64 -160
-143 -198 -177 -37 -34 -78 -70 -90 -82 -11 -12 -73 -67 -136 -124 -63 -57
-148 -133 -188 -169 -41 -36 -84 -75 -96 -86 -13 -11 -61 -55 -107 -97 -46
-42 -100 -90 -119 -107 -35 -30 -35 -31 -10 -32 96 -4 482 -18 690 -24 69 -2
195 -7 280 -10 85 -3 214 -8 285 -10 72 -3 193 -7 270 -10 77 -3 208 -7 290
-10 279 -10 410 -14 560 -20 162 -6 305 -11 565 -20 91 -3 200 -7 244 -9 75
-3 80 -2 105 24 14 16 91 97 171 181 80 84 157 165 171 181 70 76 330 350 448
473 32 33 60 65 63 70 4 6 -16 11 -50 12 -58 1 -237 9 -397 18 -97 5 -241 12
-425 20 -121 5 -251 12 -385 20 -85 5 -360 17 -385 17 -46 -1 -32 16 76 89
116 79 288 210 350 266 17 15 53 48 80 72 82 73 197 186 285 282 46 50 93 101
104 113 43 46 156 187 244 303 307 410 611 960 835 1514 l47 115 1381 0 1382
-1 120 82 c67 46 132 91 145 100 13 10 87 62 165 115 77 54 151 105 163 114
40 29 38 33 47 -117 4 -57 8 -124 10 -149 2 -25 7 -85 10 -135 4 -49 9 -106
11 -125 2 -19 6 -53 9 -75 3 -22 8 -78 12 -125 3 -47 8 -94 10 -105 2 -11 6
-44 9 -73 6 -72 30 -265 40 -332 2 -14 7 -50 10 -80 3 -30 10 -80 15 -110 5
-30 12 -71 14 -90 3 -19 15 -98 27 -175 12 -77 22 -147 24 -155 9 -60 18 -118
22 -135 4 -21 31 -170 39 -220 3 -16 10 -50 15 -75 6 -25 13 -58 16 -75 4 -27
13 -71 29 -145 2 -14 16 -77 29 -140 13 -63 31 -144 39 -180 8 -36 17 -76 20
-90 10 -53 99 -410 147 -588 85 -317 235 -819 249 -835 4 -5 16 -4 26 2 11 6
105 47 209 92 105 45 210 91 235 102 25 11 50 21 55 23 6 1 57 23 115 49 58
26 222 98 365 160 143 62 280 121 305 133 81 36 283 124 307 133 13 5 48 20
76 33 29 12 113 49 187 81 199 86 641 307 697 348 101 75 158 172 156 267 -1
49 -47 220 -59 220 -2 0 -40 -18 -84 -40 -143 -72 -363 -153 -505 -186 -143
-33 -239 -43 -390 -40 -154 4 -171 6 -265 32 -116 33 -240 122 -280 201 -8 15
-17 30 -20 33 -9 8 -91 190 -95 209 -2 9 -10 33 -18 53 -18 42 -87 263 -92
293 -2 11 -19 81 -39 155 -48 184 -140 605 -185 855 -11 61 -23 124 -26 140
-3 17 -8 46 -11 65 -3 19 -12 73 -20 120 -8 47 -17 99 -19 115 -3 17 -7 46
-10 65 -6 35 -22 139 -30 195 -3 17 -7 53 -10 80 -3 28 -8 61 -10 75 -2 14 -6
48 -10 75 -3 28 -8 68 -11 90 -6 42 -8 61 -18 165 -4 36 -9 81 -11 100 -8 69
-15 146 -20 205 -6 91 -15 204 -20 260 -5 51 -14 211 -20 345 -2 41 -6 179 -9
305 -15 587 -19 707 -32 1030 -10 238 -10 1308 0 1555 15 372 35 714 51 865 2
22 7 74 10 115 3 41 7 91 10 110 3 19 7 62 10 95 3 33 7 70 9 82 3 12 7 46 11
75 3 29 7 64 9 78 2 14 6 50 10 80 4 30 16 111 27 180 11 69 22 136 24 150 32
227 180 786 249 944 7 17 24 56 36 86 29 70 115 242 146 292 16 25 20 38 12
39 -7 0 -159 2 -338 4 -179 2 -359 6 -400 9 -198 14 -254 17 -485 31 -38 2
-97 6 -130 9 -33 3 -107 8 -165 11 -58 3 -132 7 -165 10 -59 4 -168 11 -350
21 -100 6 -1522 14 -1527 9z m1836 -1239 c-18 -85 -52 -281 -59 -342 -3 -27
-8 -60 -10 -74 -2 -14 -7 -45 -10 -70 -3 -25 -8 -61 -10 -80 -7 -47 -13 -102
-20 -175 -3 -33 -7 -78 -9 -100 -14 -132 -25 -266 -42 -500 -3 -44 -7 -100 -9
-125 -5 -57 -14 -194 -20 -285 -3 -38 -7 -104 -10 -145 -3 -41 -8 -106 -10
-145 -7 -100 -15 -222 -20 -280 -24 -303 -24 -1117 0 -1641 12 -261 22 -460
31 -574 3 -41 7 -106 9 -145 2 -38 7 -106 10 -150 3 -44 8 -114 11 -155 2 -41
7 -100 9 -130 3 -31 7 -87 10 -125 3 -39 7 -100 10 -137 l6 -68 -1522 0
c-1213 0 -1520 3 -1516 13 44 112 172 430 182 452 8 17 48 131 89 255 42 124
80 234 85 245 5 11 42 119 82 240 120 369 327 936 402 1107 8 18 44 103 80
188 36 85 80 187 97 225 17 39 31 71 31 72 -1 9 295 593 312 618 12 16 20 30
17 30 -3 0 6 18 20 40 13 22 30 51 37 65 7 14 17 32 22 40 5 8 47 78 93 155
149 252 285 450 477 698 83 108 119 151 246 296 86 99 392 394 470 454 5 4 24
19 40 33 79 67 385 284 401 284 1 0 -4 -29 -12 -64z"/>
</g>
</svg>
